<svg xmlns="http://www.w3.org/2000/svg" xmlns:xlink="http://www.w3.org/1999/xlink" viewBox="0 0 32 32"><path d="M 14.171 30.182 C 6.632 30.182 2.197 24.083 2.197 16.487 C 2.197 8.584 7.072 2.182 16.388 2.182 C 25.998 2.182 29.248 8.731 29.394 12.455 L 22.448 12.455 C 22.302 10.375 20.524 7.248 16.242 7.248 C 11.654 7.248 8.703 11.268 8.703 16.186 C 8.703 21.097 11.66 25.117 16.242 25.117 C 20.384 25.117 22.155 21.842 22.888 18.568 L 16.242 18.568 L 16.242 15.884 L 30.197 15.884 L 30.197 29.585 L 24.08 29.585 L 24.08 20.95 C 23.634 24.077 21.709 30.182 14.171 30.182 Z" fill="rgb(0,0,0)"></path></svg>